<?xml version="1.0" encoding="UTF-8" standalone="no"?>
<svg
   width="488.95999"
   height="256"
   viewBox="0 0 488.95999 256"
   version="1.1"
   id="myriad-template"
   style="font-size:50px;line-height:1;font-family:Inconsolata;stroke:#1f1b20;stroke-width:0.3"
   sodipodi:docname="template_landscape.svg"
   inkscape:version="1.2.2 (732a01da63, 2022-12-09)"
   xmlns:inkscape="http://www.inkscape.org/namespaces/inkscape"
   xmlns:sodipodi="http://sodipodi.sourceforge.net/DTD/sodipodi-0.dtd"
   xmlns="http://www.w3.org/2000/svg"
   xmlns:svg="http://www.w3.org/2000/svg">
  <defs
     id="defs32" />
  <sodipodi:namedview
     id="namedview30"
     pagecolor="#ffffff"
     bordercolor="#111111"
     borderopacity="1"
     inkscape:showpageshadow="0"
     inkscape:pageopacity="0"
     inkscape:pagecheckerboard="1"
     inkscape:deskcolor="#d1d1d1"
     showgrid="false"
     inkscape:zoom="2.5585938"
     inkscape:cx="256"
     inkscape:cy="128"
     inkscape:window-width="2400"
     inkscape:window-height="1261"
     inkscape:window-x="3191"
     inkscape:window-y="425"
     inkscape:window-maximized="1"
     inkscape:current-layer="myriad-template" />
  <path
     d="M 0.7516871,0.7516871 H 488.2083 V 255.24831 H 0.7516871 Z"
     style="fill:#f7f5f0;stroke:#a1a9b0;stroke-width:5.50337"
     id="path2" />
  <circle
     cx="48"
     cy="48"
     r="36"
     style="fill:none;stroke:#a1a9b0;stroke-width:4"
     id="circle0" />
  <text
     x="48"
     y="64"
     text-anchor="middle"
     id="text0">0</text>
  <circle
     cx="128"
     cy="48"
     r="36"
     style="fill:none;stroke:#a1a9b0;stroke-width:4"
     id="circle1" />
  <text
     x="128"
     y="64"
     text-anchor="middle"
     id="text1">1</text>
  <circle
     cx="208"
     cy="48"
     r="36"
     style="fill:none;stroke:#a1a9b0;stroke-width:4"
     id="circle2" />
  <text
     x="208"
     y="64"
     text-anchor="middle"
     id="text2">2</text>
  <circle
     cx="48"
     cy="128"
     r="36"
     style="fill:none;stroke:#a1a9b0;stroke-width:4"
     id="circle3" />
  <text
     x="48"
     y="144"
     text-anchor="middle"
     id="text3">3</text>
  <circle
     cx="128"
     cy="128"
     r="36"
     style="fill:none;stroke:#a1a9b0;stroke-width:4"
     id="circle4" />
  <text
     x="128"
     y="144"
     text-anchor="middle"
     id="text4">4</text>
  <circle
     cx="208"
     cy="128"
     r="36"
     style="fill:none;stroke:#a1a9b0;stroke-width:4"
     id="circle5" />
  <text
     x="208"
     y="144"
     text-anchor="middle"
     id="text5">5</text>
  <circle
     cx="48"
     cy="208"
     r="36"
     style="fill:none;stroke:#a1a9b0;stroke-width:4"
     id="circle6" />
  <text
     x="48"
     y="224"
     text-anchor="middle"
     id="text6">6</text>
  <circle
     cx="128"
     cy="208"
     r="36"
     style="fill:none;stroke:#a1a9b0;stroke-width:4"
     id="circle7" />
  <text
     x="128"
     y="224"
     text-anchor="middle"
     id="text7">7</text>
  <circle
     cx="208"
     cy="208"
     r="36"
     style="fill:none;stroke:#a1a9b0;stroke-width:4"
     id="circle8" />
  <text
     x="208"
     y="224"
     text-anchor="middle"
     id="text8">8</text>
  <g
     aria-label="MYRIAD"
     id="text5287"
     style="font-size:64px;line-height:1.25;-inkscape-font-specification:'Inconsolata, Normal'"
     transform="translate(-23.04048)">
    <path
       d="m 292.59248,68.255997 v -39.872 h 3.52 l 9.856,19.52 10.048,-19.584 h 3.392 v 39.936 h -4.224 v -30.08 l -8.64,16.064 h -1.728 l -8.064,-15.872 v 29.888 z"
       id="path341" />
    <path
       d="m 336.04848,68.255997 v -15.744 l -12.288,-24.128 h 5.12 l 9.792,19.328 8.832,-19.328 h 4.736 l -11.328,24.128 v 15.744 z"
       id="path343" />
    <path
       d="m 357.55248,68.255997 v -39.872 h 11.776 q 7.04,0 10.112,3.136 3.136,3.136 3.136,8.256 0,2.24 -1.024,4.48 -0.96,2.24 -2.816,3.904 -1.792,1.664 -4.288,2.304 l 9.216,17.792 h -4.992 l -8.832,-17.6 h -7.744 v 17.6 z m 4.544,-21.568 h 7.744 q 4.288,0 6.208,-1.856 1.92,-1.92 1.92,-5.056 0,-3.008 -1.92,-5.056 -1.92,-2.112 -6.208,-2.112 h -7.744 z"
       id="path345" />
    <path
       d="m 391.15248,68.255997 v -3.776 h 7.872 v -32.32 h -7.424 v -3.776 h 19.776 v 3.776 h -7.872 v 32.384 h 8.256 v 3.712 z"
       id="path347" />
    <path
       d="m 444.33648,68.255997 -4.032,-11.648 h -12.864 l -4.032,11.648 h -4.416 l 14.72,-40.576 h 0.512 l 14.72,40.576 z m -10.432,-30.336 -5.248,15.232 h 10.496 z"
       id="path349" />
    <path
       d="m 453.42448,68.319997 v -39.936 h 9.28 q 5.12,0 7.936,1.408 2.88,1.408 4.864,4.032 3.904,5.248 3.904,14.72 -0.256,6.08 -2.048,10.56 -1.728,4.416 -5.504,6.848 -3.712,2.368 -9.92,2.368 z m 4.224,-3.52 h 4.096 q 6.848,0 10.048,-4.096 3.2,-4.16 3.136,-11.904 -0.064,-7.808 -2.944,-12.224 -2.816,-4.416 -9.536,-4.416 h -4.8 z"
       id="path351" />
  </g>
  <g
     aria-label="Find every number from 1 to 💯"
     id="text26437"
     style="font-size:26.6667px;line-height:1.25;-inkscape-font-specification:'Inconsolata, Normal';text-align:center;text-anchor:middle"
     transform="translate(-18.056126,5e-5)">
    <path
       d="m 274.267,118.32499 v -16.64002 h 9.57335 v 1.62667 h -7.70668 v 5.22667 h 6.21334 v 1.62667 h -6.21334 v 8.16001 z"
       id="path294" />
    <path
       d="m 288.18702,118.32499 v -1.54667 h 3.12 v -9.09334 h -2.96 v -1.54667 h 4.88001 v 10.64001 h 2.85333 v 1.54667 z m 3.97334,-14.74669 q -0.56,0 -0.96,-0.4 -0.4,-0.4 -0.4,-0.96 0,-0.58667 0.37333,-0.98667 0.4,-0.4 0.98667,-0.4 0.56,0 0.96,0.42667 0.42667,0.4 0.42667,0.96 0,0.56 -0.42667,0.96 -0.4,0.4 -0.96,0.4 z"
       id="path296" />
    <path
       d="m 300.7737,118.32499 v -12.18668 h 1.86667 v 2.16 q 0.69334,-1.12 1.78667,-1.78667 1.12,-0.66667 2.34667,-0.66667 1.49334,0 2.53334,1.17334 1.04,1.14667 1.04,3.92 v 7.38668 h -1.86667 v -7.33334 q 0,-1.92001 -0.66667,-2.69334 -0.64,-0.77333 -1.57333,-0.77333 -0.8,0 -1.65334,0.48 -0.82667,0.45333 -1.38667,1.30666 -0.56,0.82667 -0.56,2.00001 v 7.01334 z"
       id="path298" />
    <path
       d="m 318.42706,118.59166 q -1.22667,0 -2.4,-0.69334 -1.14667,-0.72 -1.89334,-2.16 -0.74667,-1.44 -0.74667,-3.62667 0,-2.24 0.77334,-3.62667 0.77333,-1.38667 1.94667,-2.02667 1.2,-0.64 2.42667,-0.64 1.25333,0 2.16,0.58666 0.93333,0.56 1.38667,1.52001 v -7.33335 h 1.78667 l 0.0267,15.84002 q 0,0.48 0.0267,0.96 0.0533,0.45334 0.24,0.93334 h -1.89334 q -0.18666,-0.48 -0.24,-0.93334 -0.0267,-0.48 -0.0267,-0.96 -0.58667,0.98667 -1.49334,1.57334 -0.90667,0.58667 -2.08,0.58667 z m 0.29333,-1.68001 q 1.17334,0 1.86667,-0.64 0.72,-0.64 1.01334,-1.70667 0.32,-1.09333 0.32,-2.4 0,-2.05333 -0.80001,-3.41334 -0.8,-1.36 -2.56,-1.36 -1.62667,0 -2.48,1.2 -0.82667,1.20001 -0.82667,3.22667 0,2.29334 0.88,3.70668 0.88,1.38666 2.58667,1.38666 z"
       id="path300" />
    <path
       d="m 346.10709,118.59166 q -2.66667,0 -4.32,-1.62667 -1.62667,-1.62667 -1.62667,-4.69334 0,-2.08 0.74666,-3.49334 0.77334,-1.44 2.02667,-2.18667 1.28001,-0.74667 2.82667,-0.74667 1.38667,0 2.50667,0.61334 1.12001,0.61333 1.78667,1.89333 0.66667,1.28001 0.66667,3.28001 0,0.21333 -0.0267,0.45333 0,0.21334 -0.0267,0.42667 h -8.66668 q 0.10667,2.34667 1.30667,3.44 1.22667,1.09334 2.85333,1.09334 1.92001,0 3.14668,-1.36 l 1.06666,1.04 q -1.54667,1.86667 -4.26667,1.86667 z m -4.02667,-7.57335 h 6.69334 q 0,-1.70667 -0.88,-2.69333 -0.85333,-1.01334 -2.26667,-1.01334 -1.25333,0 -2.26667,0.90667 -1.01333,0.88 -1.28,2.8 z"
       id="path302" />
    <path
       d="m 358.08044,118.32499 -4.82667,-12.18668 h 1.92 l 3.76001,9.54668 1.97333,-4.50668 q 0.64,-1.46666 1.01334,-2.72 0.4,-1.25333 0.58666,-2.32 h 1.81334 q -0.21334,1.12 -0.66667,2.45333 -0.45333,1.33334 -1.12,2.88001 l -2.96,6.85334 z"
       id="path304" />
    <path
       d="m 372.77379,118.59166 q -2.66667,0 -4.32,-1.62667 -1.62667,-1.62667 -1.62667,-4.69334 0,-2.08 0.74667,-3.49334 0.77333,-1.44 2.02667,-2.18667 1.28,-0.74667 2.82667,-0.74667 1.38666,0 2.50667,0.61334 1.12,0.61333 1.78667,1.89333 0.66666,1.28001 0.66666,3.28001 0,0.21333 -0.0267,0.45333 0,0.21334 -0.0267,0.42667 h -8.66668 q 0.10667,2.34667 1.30667,3.44 1.22667,1.09334 2.85334,1.09334 1.92,0 3.14667,-1.36 l 1.06667,1.04 q -1.54667,1.86667 -4.26668,1.86667 z m -4.02667,-7.57335 h 6.69334 q 0,-1.70667 -0.88,-2.69333 -0.85333,-1.01334 -2.26667,-1.01334 -1.25333,0 -2.26667,0.90667 -1.01333,0.88 -1.28,2.8 z"
       id="path306" />
    <path
       d="m 382.02714,118.35166 v -12.21335 h 2 l -0.0533,2.24 q 0.50667,-1.22667 1.57333,-1.86667 1.06667,-0.66667 2.29334,-0.66667 1.94667,0 3.22667,1.33334 l -0.85333,1.52 q -0.77334,-0.72 -1.30667,-0.96 -0.50667,-0.24 -1.2,-0.24 -0.88,0 -1.76001,0.45333 -0.85333,0.45334 -1.41333,1.41334 -0.56,0.96 -0.56,2.50667 v 6.48001 z"
       id="path308" />
    <path
       d="m 395.57382,122.965 q -1.70666,0 -2.8,-1.04001 l 0.85334,-1.33333 q 0.42666,0.4 0.90666,0.58667 0.48,0.21333 1.14667,0.21333 1.04,0 1.62667,-0.74667 0.58667,-0.72 1.09333,-2.24 l -4.98667,-12.26668 h 2 l 3.78668,9.76001 1.6,-4.90667 q 0.4,-1.22667 0.77333,-2.42667 0.37334,-1.2 0.50667,-2.42667 h 1.92 q -0.18667,1.22667 -0.58667,2.48 -0.4,1.25334 -0.85333,2.50667 l -3.04,8.58668 q -0.64,1.78667 -1.65334,2.50667 -0.98667,0.74667 -2.29334,0.74667 z"
       id="path310" />
    <path
       d="m 420.77386,118.32499 v -12.18668 h 1.86667 v 2.16 q 0.69333,-1.12 1.78667,-1.78667 1.12,-0.66667 2.34667,-0.66667 1.49333,0 2.53333,1.17334 1.04,1.14667 1.04,3.92 v 7.38668 h -1.86667 v -7.33334 q 0,-1.92001 -0.66666,-2.69334 -0.64,-0.77333 -1.57334,-0.77333 -0.8,0 -1.65333,0.48 -0.82667,0.45333 -1.38667,1.30666 -0.56,0.82667 -0.56,2.00001 v 7.01334 z"
       id="path312" />
    <path
       d="m 438.08054,118.61832 q -1.81334,0 -3.01334,-1.36 -1.2,-1.36 -1.17333,-4.32 l 0.0267,-6.80001 h 1.86667 v 6.80001 q 0,2.32 0.8,3.22667 0.82667,0.90666 1.97334,0.90666 0.85333,0 1.6,-0.45333 0.74667,-0.45333 1.2,-1.38667 0.48,-0.93333 0.48,-2.37333 v -6.72001 h 1.86667 v 10.29334 q 0,0.48 0.0267,0.96 0.0533,0.45334 0.24,0.93334 h -1.84 q -0.18667,-0.45333 -0.24,-0.93334 -0.0267,-0.48 -0.0267,-0.93333 -0.58667,1.01333 -1.6,1.6 -0.98667,0.56 -2.18667,0.56 z"
       id="path314" />
    <path
       d="m 446.53389,118.32499 v -12.18668 h 1.76 v 1.2 q 0.42667,-0.66667 1.09334,-1.06667 0.66667,-0.42667 1.38667,-0.42667 0.8,0 1.38667,0.50667 0.61333,0.50667 0.77333,1.28 0.34667,-0.8 1.09334,-1.28 0.74666,-0.50667 1.65333,-0.50667 1.25334,0 1.81334,0.90667 0.58666,0.88 0.53333,2.21334 v 9.36001 h -1.76 v -8.64001 q 0,-1.12 -0.16,-1.62667 -0.13334,-0.50667 -0.4,-0.64 -0.26667,-0.16 -0.58667,-0.16 -0.50667,0 -0.96,0.48 -0.42667,0.45333 -0.72,1.14667 -0.26667,0.69333 -0.26667,1.38667 v 8.05334 h -1.78667 v -8.48001 q 0,-1.52 -0.29333,-2.02667 -0.26667,-0.50667 -1.04,-0.50667 -0.58667,0 -1.17334,0.77334 -0.58667,0.74666 -0.58667,2.10667 v 8.13334 z"
       id="path316" />
    <path
       d="m 465.94724,118.61832 q -1.12,0 -2.05333,-0.50666 -0.93334,-0.50667 -1.54667,-1.38667 l -0.66667,1.6 h -1.22667 v -17.73336 h 1.94667 v 7.41335 q 0.58667,-0.98667 1.57334,-1.57334 1.01333,-0.58667 2.05333,-0.58667 2.21334,0 3.60001,1.57334 1.41333,1.54667 1.41333,4.69334 0,2.18667 -0.74666,3.62667 -0.74667,1.44 -1.92001,2.16 -1.14666,0.72 -2.42667,0.72 z m -0.24,-1.70667 q 0.85334,0 1.62667,-0.42666 0.77334,-0.45334 1.25334,-1.49334 0.48,-1.04 0.48,-2.77334 0,-2.42666 -0.93334,-3.57333 -0.90666,-1.14667 -2.37333,-1.14667 -1.46667,0 -2.42667,1.33333 -0.93334,1.30667 -0.93334,3.44001 0,2.10667 0.74667,3.38667 0.77333,1.25333 2.56,1.25333 z"
       id="path318" />
    <path
       d="m 479.4406,118.59166 q -2.66667,0 -4.32,-1.62667 -1.62667,-1.62667 -1.62667,-4.69334 0,-2.08 0.74667,-3.49334 0.77333,-1.44 2.02667,-2.18667 1.28,-0.74667 2.82667,-0.74667 1.38666,0 2.50667,0.61334 1.12,0.61333 1.78666,1.89333 0.66667,1.28001 0.66667,3.28001 0,0.21333 -0.0267,0.45333 0,0.21334 -0.0267,0.42667 h -8.66668 q 0.10667,2.34667 1.30667,3.44 1.22667,1.09334 2.85334,1.09334 1.92,0 3.14667,-1.36 l 1.06666,1.04 q -1.54666,1.86667 -4.26667,1.86667 z m -4.02667,-7.57335 h 6.69334 q 0,-1.70667 -0.88,-2.69333 -0.85333,-1.01334 -2.26667,-1.01334 -1.25333,0 -2.26667,0.90667 -1.01333,0.88 -1.28,2.8 z"
       id="path320" />
    <path
       d="m 488.69394,118.35166 v -12.21335 h 2 l -0.0533,2.24 q 0.50667,-1.22667 1.57334,-1.86667 1.06666,-0.66667 2.29333,-0.66667 1.94667,0 3.22667,1.33334 l -0.85333,1.52 q -0.77334,-0.72 -1.30667,-0.96 -0.50667,-0.24 -1.2,-0.24 -0.88,0 -1.76,0.45333 -0.85334,0.45334 -1.41334,1.41334 -0.56,0.96 -0.56,2.50667 v 6.48001 z"
       id="path322" />
    <path
       d="m 311.53309,151.65836 v -10.66668 h -2.64 v -1.52001 h 2.64 v -1.01333 q 0,-2.45334 1.25334,-3.57334 1.28,-1.12 3.22667,-1.12 1.14667,0 2.13333,0.42667 1.01334,0.4 1.68001,1.25333 l -1.04001,1.44 q -0.69333,-0.85333 -1.22666,-1.2 -0.50667,-0.37333 -1.49334,-0.37333 -1.14667,0 -1.92,0.72 -0.77334,0.69333 -0.77334,2.42667 v 1.01333 h 4.00001 v 1.52001 h -4.00001 v 10.66668 z"
       id="path324" />
    <path
       d="m 323.71977,151.68502 v -12.21335 h 2.00001 l -0.0533,2.24001 q 0.50667,-1.22667 1.57334,-1.86667 1.06667,-0.66667 2.29333,-0.66667 1.94667,0 3.22668,1.33333 l -0.85334,1.52001 q -0.77333,-0.72 -1.30667,-0.96 -0.50666,-0.24 -1.2,-0.24 -0.88,0 -1.76,0.45333 -0.85334,0.45333 -1.41334,1.41333 -0.56,0.96001 -0.56,2.50667 v 6.48001 z"
       id="path326" />
    <path
       d="m 340.54646,151.87169 q -1.65333,0 -2.93334,-0.8 -1.25333,-0.82667 -1.97333,-2.24 -0.72,-1.44001 -0.72,-3.28001 0,-1.86667 0.72,-3.28 0.72,-1.44 1.97333,-2.24001 1.28001,-0.82666 2.93334,-0.82666 1.65334,0 2.90667,0.82666 1.28,0.80001 2,2.24001 0.72,1.41333 0.72,3.28 0,1.84 -0.72,3.28001 -0.72,1.41333 -2,2.24 -1.25333,0.8 -2.90667,0.8 z m 0,-1.6 q 1.06667,0 1.86667,-0.61334 0.8,-0.61333 1.25334,-1.68 0.48,-1.06667 0.48,-2.45334 0,-2.08 -1.01334,-3.38667 -1.01333,-1.33333 -2.58667,-1.33333 -1.57333,0 -2.58667,1.33333 -1.01333,1.30667 -1.01333,3.38667 0,1.38667 0.45333,2.45334 0.48,1.06667 1.28,1.68 0.82667,0.61334 1.86667,0.61334 z"
       id="path328" />
    <path
       d="m 348.22647,151.65836 v -12.18669 h 1.76 v 1.20001 q 0.42667,-0.66667 1.09334,-1.06667 0.66667,-0.42667 1.38667,-0.42667 0.8,0 1.38667,0.50667 0.61333,0.50666 0.77333,1.28 0.34667,-0.8 1.09333,-1.28 0.74667,-0.50667 1.65334,-0.50667 1.25333,0 1.81334,0.90667 0.58666,0.88 0.53333,2.21333 v 9.36002 h -1.76 v -8.64002 q 0,-1.12 -0.16,-1.62666 -0.13334,-0.50667 -0.4,-0.64 -0.26667,-0.16 -0.58667,-0.16 -0.50667,0 -0.96,0.48 -0.42667,0.45333 -0.72,1.14666 -0.26667,0.69334 -0.26667,1.38667 v 8.05335 h -1.78667 v -8.48002 q 0,-1.52 -0.29333,-2.02666 -0.26667,-0.50667 -1.04,-0.50667 -0.58667,0 -1.17334,0.77333 -0.58667,0.74667 -0.58667,2.10667 v 8.13335 z"
       id="path330" />
    <path
       d="m 380.01318,151.65836 v -14.32002 l -3.36001,0.98667 -0.42666,-1.04001 4.34667,-2.26667 h 1.30667 v 16.64003 z"
       id="path332" />
    <path
       d="m 408.51988,151.84502 q -1.57333,0 -2.4,-0.72 -0.8,-0.72 -1.06667,-2.21333 -0.26667,-1.52001 -0.18667,-3.86668 l 0.16,-4 h -2.61333 v -1.57334 h 2.66667 l 0.10666,-3.12 2.02667,-0.24 -0.26666,3.36 h 4.24 v 1.57334 h -4.24 l -0.18667,4.13334 q -0.08,2.02667 0.10667,3.14667 0.18666,1.09333 0.66666,1.52 0.48,0.4 1.28001,0.4 0.88,0 1.54666,-0.34667 0.69334,-0.34666 1.44001,-0.88 l 0.58666,1.52 q -0.90666,0.66667 -1.86667,0.98667 -0.96,0.32 -2,0.32 z"
       id="path334" />
    <path
       d="m 420.54656,151.87169 q -1.65333,0 -2.93333,-0.8 -1.25334,-0.82667 -1.97334,-2.24 -0.72,-1.44001 -0.72,-3.28001 0,-1.86667 0.72,-3.28 0.72,-1.44 1.97334,-2.24001 1.28,-0.82666 2.93333,-0.82666 1.65334,0 2.90667,0.82666 1.28001,0.80001 2.00001,2.24001 0.72,1.41333 0.72,3.28 0,1.84 -0.72,3.28001 -0.72,1.41333 -2.00001,2.24 -1.25333,0.8 -2.90667,0.8 z m 0,-1.6 q 1.06667,0 1.86667,-0.61334 0.8,-0.61333 1.25334,-1.68 0.48,-1.06667 0.48,-2.45334 0,-2.08 -1.01334,-3.38667 -1.01333,-1.33333 -2.58667,-1.33333 -1.57333,0 -2.58667,1.33333 -1.01333,1.30667 -1.01333,3.38667 0,1.38667 0.45333,2.45334 0.48,1.06667 1.28001,1.68 0.82666,0.61334 1.86666,0.61334 z"
       id="path336" />
    <path
       d="m 462.59089,141.90574 q 0,-0.58594 0.0781,-1.14584 0.0781,-0.57291 0.14322,-1.15885 0.0912,-0.72917 0.1823,-1.47136 0.0911,-0.75521 0.26041,-1.47135 0.16927,-0.72917 0.44271,-1.40626 0.27344,-0.6901 0.71615,-1.3151 0.66406,-0.9375 1.65365,-1.43229 0.98958,-0.4948 2.13542,-0.4948 0.91146,0 1.61458,0.3125 0.70313,0.29948 1.17188,0.84636 0.48177,0.53385 0.71614,1.27604 0.2474,0.72917 0.2474,1.60157 0,0.45573 -0.0651,0.89844 -0.0521,0.4427 -0.10417,0.88541 -0.0651,0.52084 -0.13021,1.04167 -0.0651,0.50781 -0.11719,1.02865 -0.11718,1.11979 -0.46875,2.22656 -0.33854,1.09376 -0.96354,1.96615 -0.625,0.85938 -1.5625,1.40625 -0.9375,0.53386 -2.22657,0.53386 -0.9375,0 -1.64062,-0.3125 -0.69011,-0.3125 -1.15886,-0.85938 -0.46875,-0.55989 -0.70313,-1.3151 -0.22135,-0.75521 -0.22135,-1.64063 z m 3.51563,-0.22136 q 0,0.33855 0.13021,0.58594 0.14323,0.2474 0.52083,0.2474 0.29948,0 0.49479,-0.11719 0.20834,-0.11719 0.33855,-0.29948 0.14323,-0.19531 0.20833,-0.42969 0.0781,-0.24739 0.10417,-0.50781 0.0651,-0.57292 0.11718,-1.13281 0.0651,-0.5599 0.13021,-1.13282 0.0781,-0.625 0.16927,-1.27604 0.10417,-0.65104 0.10417,-1.27604 0,-0.33855 -0.14323,-0.58594 -0.13021,-0.2474 -0.50781,-0.2474 -0.29948,0 -0.50781,0.11719 -0.20834,0.11719 -0.33855,0.3125 -0.11718,0.18229 -0.19531,0.42969 -0.0651,0.23437 -0.0911,0.49479 -0.0651,0.625 -0.14323,1.22396 -0.0651,0.59896 -0.14322,1.22396 -0.0651,0.58594 -0.15625,1.1849 -0.0912,0.59896 -0.0912,1.18489 z m -13.34637,2.09636 q 0,0.88542 0.22135,1.64063 0.23438,0.75521 0.70313,1.3151 0.46875,0.54688 1.17188,0.85938 0.70312,0.3125 1.64062,0.3125 1.30209,0 2.22657,-0.53385 0.9375,-0.54688 1.54948,-1.40626 0.625,-0.87239 0.96354,-1.96614 0.35156,-1.10678 0.46875,-2.22657 0.0651,-0.52083 0.11719,-1.02865 0.0651,-0.52083 0.13021,-1.04166 0.0651,-0.44271 0.11719,-0.88542 0.0521,-0.45573 0.0521,-0.89844 0,-0.8724 -0.2474,-1.61459 -0.23437,-0.74218 -0.71614,-1.27604 -0.46875,-0.54688 -1.17188,-0.84635 -0.70313,-0.31251 -1.61459,-0.31251 -0.32552,0 -0.63802,0.0391 -1.15885,0.15625 -1.97917,0.74219 -0.80729,0.58593 -1.35416,1.43229 -0.53386,0.84635 -0.83334,1.875 -0.28646,1.01563 -0.40365,2.04428 l -0.16927,1.47135 q -0.0651,0.58594 -0.15625,1.15886 -0.0781,0.55989 -0.0781,1.14583 z m 5.19532,-6.39324 q 0.3776,0 0.50781,0.26042 0.14323,0.26042 0.14323,0.59896 0,0.61198 -0.10417,1.26302 -0.10416,0.65105 -0.16927,1.26303 -0.0651,0.57291 -0.13021,1.13281 -0.0651,0.54687 -0.1302,1.11979 -0.026,0.26042 -0.10417,0.50782 -0.0651,0.24739 -0.19531,0.4427 -0.13021,0.1823 -0.33855,0.29948 -0.20833,0.11719 -0.50781,0.11719 -0.39063,0 -0.52083,-0.26042 -0.13021,-0.27343 -0.13021,-0.61198 0,-0.57291 0.0911,-1.15885 0.0912,-0.59896 0.15625,-1.17188 0.0651,-0.625 0.14323,-1.22396 0.0781,-0.59896 0.14323,-1.22396 0.026,-0.26041 0.0911,-0.49479 0.0781,-0.2474 0.20833,-0.42969 0.13021,-0.19531 0.32552,-0.3125 0.20834,-0.11719 0.52084,-0.11719 z m -6.06772,0.0911 q 0,-0.35156 -0.0781,-0.66406 -0.0781,-0.32552 -0.26042,-0.5599 -0.16927,-0.23437 -0.44271,-0.36458 -0.27344,-0.14323 -0.67708,-0.14323 -0.32552,0 -0.75521,0.26041 -0.41667,0.2474 -0.8724,0.65105 -0.45573,0.39062 -0.92448,0.88541 -0.45573,0.4948 -0.8724,0.97657 -0.40364,0.48177 -0.74219,0.91146 -0.32552,0.41666 -0.50781,0.66406 -0.28646,0.39063 -0.28646,0.85938 0,0.29948 0.11719,0.55989 0.11719,0.26042 0.3125,0.45573 0.19531,0.19532 0.45573,0.3125 0.26042,0.10417 0.5599,0.10417 0.3776,0 0.65104,-0.14323 0.27344,-0.15625 0.52083,-0.41667 l -1.13281,7.98179 q -0.013,0.0651 -0.013,0.11718 0,0.0521 0,0.11719 0,0.33854 0.13021,0.63802 0.13021,0.28646 0.33854,0.50782 0.22135,0.22135 0.50781,0.35156 0.29948,0.11719 0.63802,0.11719 0.29948,0 0.57292,-0.10417 0.27344,-0.10417 0.48177,-0.28646 0.22136,-0.19531 0.36459,-0.44271 0.14323,-0.26042 0.18229,-0.5599 l 1.67969,-12.17449 q 0.026,-0.15625 0.0391,-0.29948 0.013,-0.15625 0.013,-0.3125 z m 18.20315,9.96095 q 0,0.32552 -0.20833,0.59896 -0.20834,0.26042 -0.53386,0.32552 l -14.97398,3.26823 q -0.1302,0.026 -0.20833,0.026 -0.3776,0 -0.66406,-0.27344 -0.27344,-0.28646 -0.27344,-0.66407 0,-0.33854 0.20833,-0.58593 0.20834,-0.26042 0.53386,-0.32552 l 14.97397,-3.28126 q 0.13021,-0.026 0.19532,-0.026 0.3776,0 0.66406,0.27344 0.28646,0.27343 0.28646,0.66406 z m -2.34375,3.75001 q 0,0.32552 -0.20834,0.58593 -0.20833,0.26042 -0.52083,0.32552 l -14.50523,3.28126 q -0.13021,0.026 -0.19531,0.026 -0.40365,0 -0.67708,-0.28646 -0.27344,-0.27344 -0.27344,-0.66406 0,-0.32552 0.20833,-0.58594 0.20833,-0.26042 0.52084,-0.32552 l 14.50522,-3.26823 q 0.13021,-0.026 0.20834,-0.026 0.39062,0 0.66406,0.28646 0.27344,0.27344 0.27344,0.65105 z"
       style="fill:#ff0000"
       id="path338" />
  </g>
  <g
     aria-label="myriad-game.com"
     id="text26437-6"
     style="font-size:24px;line-height:1.25;-inkscape-font-specification:'Inconsolata, Normal'"
     transform="translate(-22.026754)">
    <path
       d="m 296.82649,214.367 v -10.968 h 1.584 v 1.08 q 0.384,-0.6 0.984,-0.96 0.6,-0.384 1.248,-0.384 0.72,0 1.248,0.456 0.552,0.456 0.696,1.152 0.312,-0.72 0.984,-1.152 0.672,-0.456 1.488,-0.456 1.128,0 1.632,0.816 0.528,0.792 0.48,1.992 v 8.424 h -1.584 v -7.776 q 0,-1.008 -0.144,-1.464 -0.12,-0.456 -0.36,-0.576 -0.24,-0.144 -0.528,-0.144 -0.456,0 -0.864,0.432 -0.384,0.408 -0.648,1.032 -0.24,0.624 -0.24,1.248 v 7.248 h -1.608 v -7.632 q 0,-1.368 -0.264,-1.824 -0.24,-0.456 -0.936,-0.456 -0.528,0 -1.056,0.696 -0.528,0.672 -0.528,1.896 v 7.32 z"
       id="path354" />
    <path
       d="m 310.96249,218.543 q -1.536,0 -2.52,-0.936 l 0.768,-1.2 q 0.384,0.36 0.816,0.528 0.432,0.192 1.032,0.192 0.936,0 1.464,-0.672 0.528,-0.648 0.984,-2.016 l -4.488,-11.04 h 1.8 l 3.408,8.784 1.44,-4.416 q 0.36,-1.104 0.696,-2.184 0.336,-1.08 0.456,-2.184 h 1.728 q -0.168,1.104 -0.528,2.232 -0.36,1.128 -0.768,2.256 l -2.736,7.728 q -0.576,1.608 -1.488,2.256 -0.888,0.672 -2.064,0.672 z"
       id="path356" />
    <path
       d="m 322.77049,214.391 v -10.992 h 1.8 l -0.048,2.016 q 0.456,-1.104 1.416,-1.68 0.96,-0.6 2.064,-0.6 1.752,0 2.904,1.2 l -0.768,1.368 q -0.696,-0.648 -1.176,-0.864 -0.456,-0.216 -1.08,-0.216 -0.792,0 -1.584,0.408 -0.768,0.408 -1.272,1.272 -0.504,0.864 -0.504,2.256 v 5.832 z"
       id="path358" />
    <path
       d="m 334.31449,214.367 v -1.392 h 2.808 v -8.184 h -2.664 v -1.392 h 4.392 v 9.576 h 2.568 v 1.392 z m 3.576,-13.272 q -0.504,0 -0.864,-0.36 -0.36,-0.36 -0.36,-0.864 0,-0.528 0.336,-0.888 0.36,-0.36 0.888,-0.36 0.504,0 0.864,0.384 0.384,0.36 0.384,0.864 0,0.504 -0.384,0.864 -0.36,0.36 -0.864,0.36 z"
       id="path360" />
    <path
       d="m 348.97849,214.631 q -1.872,0 -2.88,-0.84 -1.008,-0.864 -1.008,-2.184 0,-1.176 0.744,-2.016 0.744,-0.864 1.992,-1.32 1.272,-0.48 2.784,-0.48 0.552,0 1.152,0.024 0.624,0.024 1.32,0.12 -0.144,-1.92 -1.008,-2.64 -0.84,-0.72 -2.424,-0.72 -0.792,0 -1.56,0.312 -0.768,0.288 -1.392,0.912 l -0.84,-1.104 q 0.768,-0.768 1.776,-1.152 1.008,-0.384 2.136,-0.384 1.464,0 2.544,0.48 1.08,0.48 1.68,1.656 0.6,1.176 0.6,3.24 v 5.832 h -1.872 v -1.68 q -0.408,0.792 -1.056,1.224 -0.624,0.408 -1.344,0.552 -0.696,0.168 -1.344,0.168 z m -2.16,-3.12 q 0,1.032 0.672,1.416 0.672,0.384 1.656,0.384 1.776,0 2.808,-1.032 1.032,-1.056 1.128,-3.024 -1.248,-0.168 -2.328,-0.168 -1.728,0 -2.832,0.576 -1.104,0.576 -1.104,1.848 z"
       id="path362" />
    <path
       d="m 361.53049,214.607 q -1.104,0 -2.16,-0.624 -1.032,-0.648 -1.704,-1.944 -0.672,-1.296 -0.672,-3.264 0,-2.016 0.696,-3.264 0.696,-1.248 1.752,-1.824 1.08,-0.576 2.184,-0.576 1.128,0 1.944,0.528 0.84,0.504 1.248,1.368 v -6.6 h 1.608 l 0.024,14.256 q 0,0.432 0.024,0.864 0.048,0.408 0.216,0.84 h -1.704 q -0.168,-0.432 -0.216,-0.84 -0.024,-0.432 -0.024,-0.864 -0.528,0.888 -1.344,1.416 -0.816,0.528 -1.872,0.528 z m 0.264,-1.512 q 1.056,0 1.68,-0.576 0.648,-0.576 0.912,-1.536 0.288,-0.984 0.288,-2.16 0,-1.848 -0.72,-3.072 -0.72,-1.224 -2.304,-1.224 -1.464,0 -2.232,1.08 -0.744,1.08 -0.744,2.904 0,2.064 0.792,3.336 0.792,1.248 2.328,1.248 z"
       id="path364" />
    <path
       d="m 370.57849,207.623 v -1.608 h 6.72 v 1.608 z"
       id="path366" />
    <path
       d="m 385.33849,210.647 q -0.936,0 -1.704,-0.336 -0.432,0.528 -0.432,1.008 0,0.576 0.72,0.84 0.72,0.24 2.64,0.24 1.68,0 2.544,0.36 0.864,0.36 1.176,0.984 0.312,0.624 0.312,1.44 0,0.84 -0.456,1.608 -0.456,0.768 -1.512,1.224 -1.032,0.48 -2.784,0.48 -2.304,0 -3.672,-0.72 -1.344,-0.696 -1.344,-2.112 0,-0.888 0.504,-1.512 0.504,-0.648 1.2,-0.96 -0.792,-0.528 -0.792,-1.464 0,-0.528 0.264,-1.032 0.264,-0.504 0.72,-0.984 -1.224,-1.08 -1.224,-2.904 0,-1.056 0.456,-1.92 0.48,-0.864 1.344,-1.368 0.864,-0.528 2.04,-0.528 0.888,0 1.584,0.312 0.72,0.288 1.224,0.816 0.624,-0.576 1.32,-0.816 0.696,-0.264 1.632,-0.192 l 0.216,1.416 q -0.72,-0.072 -1.368,0.024 -0.624,0.096 -1.176,0.456 0.408,0.816 0.408,1.8 0,1.056 -0.48,1.944 -0.456,0.864 -1.32,1.392 -0.84,0.504 -2.04,0.504 z m 0,-1.44 q 1.056,0 1.728,-0.696 0.672,-0.72 0.672,-1.704 0,-0.984 -0.672,-1.68 -0.672,-0.72 -1.728,-0.72 -1.032,0 -1.728,0.72 -0.672,0.696 -0.672,1.68 0,0.984 0.672,1.704 0.696,0.696 1.728,0.696 z m -2.928,6.264 q 0,0.816 0.912,1.272 0.936,0.456 2.544,0.456 1.632,0 2.376,-0.504 0.768,-0.48 0.768,-1.248 0,-0.528 -0.192,-0.864 -0.192,-0.336 -0.792,-0.504 -0.6,-0.168 -1.824,-0.168 -0.84,0 -1.536,-0.072 -0.672,-0.072 -1.224,-0.24 -0.552,0.384 -0.792,0.768 -0.24,0.408 -0.24,1.104 z"
       id="path368" />
    <path
       d="m 396.97849,214.631 q -1.872,0 -2.88,-0.84 -1.008,-0.864 -1.008,-2.184 0,-1.176 0.744,-2.016 0.744,-0.864 1.992,-1.32 1.272,-0.48 2.784,-0.48 0.552,0 1.152,0.024 0.624,0.024 1.32,0.12 -0.144,-1.92 -1.008,-2.64 -0.84,-0.72 -2.424,-0.72 -0.792,0 -1.56,0.312 -0.768,0.288 -1.392,0.912 l -0.84,-1.104 q 0.768,-0.768 1.776,-1.152 1.008,-0.384 2.136,-0.384 1.464,0 2.544,0.48 1.08,0.48 1.68,1.656 0.6,1.176 0.6,3.24 v 5.832 h -1.872 v -1.68 q -0.408,0.792 -1.056,1.224 -0.624,0.408 -1.344,0.552 -0.696,0.168 -1.344,0.168 z m -2.16,-3.12 q 0,1.032 0.672,1.416 0.672,0.384 1.656,0.384 1.776,0 2.808,-1.032 1.032,-1.056 1.128,-3.024 -1.248,-0.168 -2.328,-0.168 -1.728,0 -2.832,0.576 -1.104,0.576 -1.104,1.848 z"
       id="path370" />
    <path
       d="m 404.82649,214.367 v -10.968 h 1.584 v 1.08 q 0.384,-0.6 0.984,-0.96 0.6,-0.384 1.248,-0.384 0.72,0 1.248,0.456 0.552,0.456 0.696,1.152 0.312,-0.72 0.984,-1.152 0.672,-0.456 1.488,-0.456 1.128,0 1.632,0.816 0.528,0.792 0.48,1.992 v 8.424 h -1.584 v -7.776 q 0,-1.008 -0.144,-1.464 -0.12,-0.456 -0.36,-0.576 -0.24,-0.144 -0.528,-0.144 -0.456,0 -0.864,0.432 -0.384,0.408 -0.648,1.032 -0.24,0.624 -0.24,1.248 v 7.248 h -1.608 v -7.632 q 0,-1.368 -0.264,-1.824 -0.24,-0.456 -0.936,-0.456 -0.528,0 -1.056,0.696 -0.528,0.672 -0.528,1.896 v 7.32 z"
       id="path372" />
    <path
       d="m 422.44249,214.607 q -2.4,0 -3.888,-1.464 -1.464,-1.464 -1.464,-4.224 0,-1.872 0.672,-3.144 0.696,-1.296 1.824,-1.968 1.152,-0.672 2.544,-0.672 1.248,0 2.256,0.552 1.008,0.552 1.608,1.704 0.6,1.152 0.6,2.952 0,0.192 -0.024,0.408 0,0.192 -0.024,0.384 h -7.8 q 0.096,2.112 1.176,3.096 1.104,0.984 2.568,0.984 1.728,0 2.832,-1.224 l 0.96,0.936 q -1.392,1.68 -3.84,1.68 z m -3.624,-6.816 h 6.024 q 0,-1.536 -0.792,-2.424 -0.768,-0.912 -2.04,-0.912 -1.128,0 -2.04,0.816 -0.912,0.792 -1.152,2.52 z"
       id="path374" />
    <path
       d="m 433.62649,214.631 q -0.576,0 -0.984,-0.408 -0.408,-0.408 -0.408,-0.96 0,-0.552 0.408,-0.96 0.408,-0.408 0.984,-0.408 0.552,0 0.96,0.408 0.408,0.408 0.408,0.96 0,0.552 -0.408,0.96 -0.408,0.408 -0.96,0.408 z"
       id="path376" />
    <path
       d="m 446.75449,214.631 q -1.584,0 -2.832,-0.744 -1.248,-0.744 -1.968,-2.04 -0.696,-1.296 -0.696,-2.952 0,-1.656 0.696,-2.928 0.72,-1.296 1.944,-2.04 1.248,-0.744 2.832,-0.744 1.344,0 2.4,0.552 1.08,0.528 1.752,1.488 l -1.104,1.08 q -0.696,-0.912 -1.44,-1.272 -0.744,-0.384 -1.8,-0.384 -0.912,0 -1.728,0.504 -0.792,0.504 -1.296,1.44 -0.48,0.912 -0.48,2.184 0,1.224 0.48,2.208 0.504,0.96 1.368,1.536 0.864,0.552 1.968,0.552 1.656,0 2.856,-1.344 l 1.008,1.176 q -1.608,1.728 -3.96,1.728 z"
       id="path378" />
    <path
       d="m 457.91449,214.559 q -1.488,0 -2.64,-0.72 -1.128,-0.744 -1.776,-2.016 -0.648,-1.296 -0.648,-2.952 0,-1.68 0.648,-2.952 0.648,-1.296 1.776,-2.016 1.152,-0.744 2.64,-0.744 1.488,0 2.616,0.744 1.152,0.72 1.8,2.016 0.648,1.272 0.648,2.952 0,1.656 -0.648,2.952 -0.648,1.272 -1.8,2.016 -1.128,0.72 -2.616,0.72 z m 0,-1.44 q 0.96,0 1.68,-0.552 0.72,-0.552 1.128,-1.512 0.432,-0.96 0.432,-2.208 0,-1.872 -0.912,-3.048 -0.912,-1.2 -2.328,-1.2 -1.416,0 -2.328,1.2 -0.912,1.176 -0.912,3.048 0,1.248 0.408,2.208 0.432,0.96 1.152,1.512 0.744,0.552 1.68,0.552 z"
       id="path380" />
    <path
       d="m 464.82649,214.367 v -10.968 h 1.584 v 1.08 q 0.384,-0.6 0.984,-0.96 0.6,-0.384 1.248,-0.384 0.72,0 1.248,0.456 0.552,0.456 0.696,1.152 0.312,-0.72 0.984,-1.152 0.672,-0.456 1.488,-0.456 1.128,0 1.632,0.816 0.528,0.792 0.48,1.992 v 8.424 h -1.584 v -7.776 q 0,-1.008 -0.144,-1.464 -0.12,-0.456 -0.36,-0.576 -0.24,-0.144 -0.528,-0.144 -0.456,0 -0.864,0.432 -0.384,0.408 -0.648,1.032 -0.24,0.624 -0.24,1.248 v 7.248 h -1.608 v -7.632 q 0,-1.368 -0.264,-1.824 -0.24,-0.456 -0.936,-0.456 -0.528,0 -1.056,0.696 -0.528,0.672 -0.528,1.896 v 7.32 z"
       id="path382" />
  </g>
</svg>
